<svg width="105" height="105" viewBox="0 0 105 105" fill="none" xmlns="http://www.w3.org/2000/svg">
<rect width="104.673" height="104.673" rx="8" fill="#F4931E"/>
<path d="M23.0007 26C23.0007 18.268 29.2687 12 37.0007 12H51.0002H65.0001C72.7323 12 79 18.268 79 26C79 33.732 72.7323 40 65.0001 40H51.0006L51.0002 54V67.9999V82.0001C51.0002 89.7319 44.7321 96 37 96C29.268 96 23 89.7319 23 82.0001C23 74.2679 29.268 67.9999 37 67.9999C29.268 67.9999 23 61.7322 23 54C23 46.2682 29.268 40 37 40C29.268 40 23.0007 33.732 23.0007 26ZM51.0002 54C51.0002 61.7322 57.2683 67.9999 65.0001 67.9999C72.7323 67.9999 79 61.7322 79 54C79 46.2682 72.7323 40 65.0001 40C57.2683 40 51.0002 46.2682 51.0002 54Z" fill="black"/>
</svg>
