<svg width="105" height="105" viewBox="0 0 105 105" fill="none" xmlns="http://www.w3.org/2000/svg">
<path d="M0 8C0 3.58172 3.58172 0 8 0H96.6729C101.091 0 104.673 3.58172 104.673 8V96.6729C104.673 101.091 101.091 104.673 96.6729 104.673H8C3.58172 104.673 0 101.091 0 96.6729V8Z" fill="#F4931E"/>
<path d="M52.5 89C38.4167 89 27 77.5988 27 63.5349C27 56.222 30.0867 49.6292 35.0301 44.9847C39.5937 40.6969 50.8 32.9751 49.1 16C69.5 29.5814 79.7 43.1628 59.3 63.5349C62.7 63.5349 67.8 63.5349 76.3 55.147C77.217 57.7737 78 60.5962 78 63.5349C78 77.5988 66.5831 89 52.5 89Z" fill="black"/>
</svg>
