<svg width="105" height="105" viewBox="0 0 105 105" fill="none" xmlns="http://www.w3.org/2000/svg">
<rect width="104.673" height="104.673" rx="8" fill="#F4931E"/>
<path d="M54.1 76.8V83H47.9V76.8H23.1C21.3879 76.8 20 75.4121 20 73.7V30.3H82V73.7C82 75.4121 80.6121 76.8 78.9 76.8H54.1ZM38.6 42.7C33.4638 42.7 29.3 46.8636 29.3 52C29.3 57.1364 33.4638 61.3 38.6 61.3C43.7362 61.3 47.9 57.1364 47.9 52H38.6V42.7ZM54.1 42.7V48.9H72.7V42.7H54.1ZM54.1 55.1V61.3H72.7V55.1H54.1ZM20 21H82V27.2H20V21Z" fill="black"/>
</svg>
