<svg width="105" height="105" viewBox="0 0 105 105" fill="none" xmlns="http://www.w3.org/2000/svg">
<rect width="104.673" height="104.673" rx="8" fill="#F4931E"/>
<path d="M44 82.992V69.6C44 64.4696 47.9792 60.4304 53.8668 58.1284C50.1724 56.752 46.174 56 42 56C34.4405 56 27.4573 58.4672 21.8114 62.64C25.328 72.6176 33.6509 80.328 44 82.992ZM79.5176 68.3436C77.9448 66.2104 72.6832 64 66 64C57.9756 64 52 67.1868 52 69.6V84C63.702 84 73.9372 77.7184 79.5176 68.3436ZM42.2 50C47.1704 50 51.2 45.9704 51.2 41C51.2 36.0294 47.1704 32 42.2 32C37.2294 32 33.2 36.0294 33.2 41C33.2 45.9704 37.2294 50 42.2 50ZM66 54C70.4184 54 74 50.4184 74 46C74 41.5817 70.4184 38 66 38C61.5816 38 58 41.5817 58 46C58 50.4184 61.5816 54 66 54ZM52 92C29.9086 92 12 74.0912 12 52C12 29.9086 29.9086 12 52 12C74.0912 12 92 29.9086 92 52C92 74.0912 74.0912 92 52 92Z" fill="black"/>
</svg>
